<?xml version="1.0" encoding="UTF-8"?>
<svg version="1.1" xmlns="http://www.w3.org/2000/svg" width="1024" height="1024">
<path d="M0 0 C-3.41117852 3.60556553 -6.84213055 6.36508219 -11 9.0625 C-18.36133868 13.99260965 -24.66022807 19.84065337 -31 26 C-32.39412109 27.33417969 -32.39412109 27.33417969 -33.81640625 28.6953125 C-36.99868349 31.76215198 -36.99868349 31.76215198 -40 35 C-40 35.66 -40 36.32 -40 37 C35.26260617 71.74943859 117.60446466 92.58284556 249.85614014 110.80859375 C251.85524 110.98707566 253.85367714 111.17293781 255.85205078 111.359375 C311.91494441 116.39671482 369.45841908 113.81715971 425.07298279 105.78660583 C431.3634162 104.90184186 437.66126685 104.38170197 444 104 C443.67 104.66 443.34 105.32 443 106 C440.37886517 106.83604337 437.80377904 107.54935966 435.13671875 108.20703125 C434.3263063 108.4127626 433.51589386 108.61849396 432.68092346 108.83045959 C430.01893254 109.50156715 427.3536977 110.1583177 424.6875 110.8125 C423.77875122 111.03754211 422.87000244 111.26258423 421.93371582 111.4944458 C406.3823991 115.33513627 390.84161907 118.5797202 375 121 C373.85708496 121.17724609 372.71416992 121.35449219 371.53662109 121.53710938 C358.70206828 123.50700611 345.83757108 125.20748044 332.9375 126.6875 C331.91712646 126.80689941 330.89675293 126.92629883 329.84545898 127.04931641 C314.34621991 128.75377637 298.79497216 129.15629377 283.21484375 129.1328125 C281.57792649 129.13349025 279.94100933 129.13446412 278.30409241 129.13571167 C274.90169297 129.13716952 271.49932012 129.13509874 268.09692383 129.13037109 C263.82019998 129.12470602 259.54353875 129.12804759 255.26681709 129.1337986 C204.80387093 129.19185294 204.80387093 129.19185294 181.75 126.375 C181.04742065 126.29141235 180.34484131 126.20782471 179.62097168 126.1217041 C114.93054341 118.40431181 51.75136977 104.81353193 -10 84 C-10.33 84.33 -10.66 84.66 -11 85 C-4.04472043 96.23712356 3.60505748 106.79760544 12 117 C12.74507812 117.93199219 13.49015625 118.86398437 14.2578125 119.82421875 C21.4358712 128.61779251 29.41902948 136.6073557 37.4375 144.625 C38.01747742 145.20588379 38.59745483 145.78676758 39.19500732 146.38525391 C40.87516931 148.06511922 42.55959854 149.74055745 44.24609375 151.4140625 C44.75096817 151.91773346 45.25584259 152.42140442 45.77601624 152.94033813 C48.70844255 155.83448756 51.7378942 158.483933 55 161 C54.67 161.99 54.34 162.98 54 164 C41.02886241 159.66495402 28.4798027 154.58984047 16 149 C14.71585205 148.42789795 14.71585205 148.42789795 13.40576172 147.84423828 C-1.32709986 141.22496403 -15.18800681 133.35295536 -29 125 C-29.75651855 124.54625 -30.51303711 124.0925 -31.29248047 123.625 C-51.28797396 111.60046081 -70.1844936 97.82541415 -87.88671875 82.640625 C-90.68171957 80.2505597 -93.55255753 77.96842084 -96.4375 75.6875 C-102.90516684 70.4354886 -108.66763717 64.49839185 -114.48388672 58.54858398 C-117.91302701 55.04600156 -121.40108761 51.60246951 -124.8828125 48.15234375 C-126.29692592 46.74744708 -127.7109873 45.34249804 -129.125 43.9375 C-129.84042969 43.23044922 -130.55585938 42.52339844 -131.29296875 41.79492188 C-131.98261719 41.10849609 -132.67226562 40.42207031 -133.3828125 39.71484375 C-134.00559082 39.09730225 -134.62836914 38.47976074 -135.27001953 37.84350586 C-140 32.80313294 -140 32.80313294 -140 29 C-98.44399994 8.73847033 -45.99157252 -0.92704178 0 0 Z " fill="#000000" transform="translate(243,467)"/>
<path d="M0 0 C3.51889177 -0.00435447 7.03650566 -0.04076755 10.55517578 -0.07861328 C70.66519564 -0.37629661 132.88904113 22.96927644 180.55126953 59.37060547 C179.89126953 59.70060547 179.23126953 60.03060547 178.55126953 60.37060547 C176.04638672 59.46533203 176.04638672 59.46533203 172.84814453 58.01123047 C171.65543945 57.47780029 170.46273438 56.94437012 169.23388672 56.39477539 C168.5943103 56.10573334 167.95473389 55.81669128 167.29577637 55.51889038 C123.11046786 35.61873499 74.46162685 18.46040943 25.56298828 18.13232422 C24.35411957 18.12248505 23.14525085 18.11264587 21.89974976 18.10250854 C-2.80856887 17.94267837 -27.0731577 17.78841346 -51.44873047 22.37060547 C-52.8679949 22.62167527 -54.28760987 22.87076939 -55.70751953 23.11816406 C-81.16741229 27.57052307 -106.08463954 33.54161469 -130.69873047 41.49560547 C-131.64458008 41.79587646 -132.59042969 42.09614746 -133.56494141 42.40551758 C-139.93180239 44.54289826 -146.13490958 47.18735637 -151.44873047 51.37060547 C-153.09580859 54.88256101 -153.09580859 54.88256101 -152.44873047 58.37060547 C-149.33893285 62.58183078 -145.65302808 63.38590246 -140.74560547 64.33544922 C-139.99015442 64.49549942 -139.23470337 64.65554962 -138.45635986 64.82044983 C-136.03986087 65.3305765 -133.61991131 65.82072805 -131.19873047 66.30810547 C-119.37084831 68.72678371 -107.89745862 71.51959497 -96.44873047 75.37060547 C-95.21654785 75.78161499 -95.21654785 75.78161499 -93.95947266 76.20092773 C-79.68943203 81.09217648 -64.84165696 87.68616834 -52.44873047 96.37060547 C-52.44873047 97.03060547 -52.44873047 97.69060547 -52.44873047 98.37060547 C-59.96111957 97.07490205 -67.0248346 94.98564147 -74.26123047 92.62060547 C-83.77761205 89.61409776 -93.30359025 87.09638045 -103.07373047 85.05810547 C-104.15372314 84.82833008 -105.23371582 84.59855469 -106.34643555 84.36181641 C-126.78889121 80.26582896 -147.06653578 78.93009133 -167.87841797 78.92919922 C-170.33449063 78.91738051 -172.79055623 78.90400566 -175.24661255 78.88917542 C-181.6410673 78.85340804 -188.03545944 78.83291405 -194.42999268 78.81762695 C-204.67971648 78.79256297 -214.92930214 78.75257296 -225.17889786 78.69572639 C-228.71808554 78.67964378 -232.25713686 78.67564427 -235.7963562 78.67271423 C-251.94629491 78.62016093 -267.77674337 77.95113285 -283.51123047 73.99560547 C-284.35621094 73.79966797 -285.20119141 73.60373047 -286.07177734 73.40185547 C-291.85068336 71.99605539 -297.09740688 69.95711888 -302.44873047 67.37060547 C-302.39072266 68.49337891 -302.33271484 69.61615234 -302.27294922 70.77294922 C-301.89746514 80.99090946 -302.21572016 87.7358483 -309.43310547 95.50732422 C-314.37522095 100.24789953 -319.93365176 104.11680697 -326.44873047 106.37060547 C-327.10873047 106.04060547 -327.76873047 105.71060547 -328.44873047 105.37060547 C-327.89443359 104.65775391 -327.34013672 103.94490234 -326.76904297 103.21044922 C-320.75044131 95.25347229 -317.148665 88.51786969 -318.44873047 78.37060547 C-320.55994728 70.6483695 -324.78844523 63.3286926 -328.2746582 56.14648438 C-333.75712972 44.78137791 -333.75712972 44.78137791 -333.57373047 37.99560547 C-333.55568359 37.12162109 -333.53763672 36.24763672 -333.51904297 35.34716797 C-333.49583984 34.69490234 -333.47263672 34.04263672 -333.44873047 33.37060547 C-329.35191042 34.61746374 -325.61559525 36.19545006 -321.79223633 38.08666992 C-288.65572002 54.45205145 -259.78972415 53.66538106 -224.63623047 44.43310547 C-222.76616835 43.94828523 -220.89596621 43.4640048 -219.02563477 42.98022461 C-206.52774465 39.7382825 -194.05420426 36.40523192 -181.58261108 33.06384277 C-135.7307867 20.78193583 -89.58791099 8.61992829 -42.44873047 2.37060547 C-41.4497876 2.23446838 -41.4497876 2.23446838 -40.43066406 2.09558105 C-26.96692694 0.30634159 -13.57099129 -0.00186851 0 0 Z " fill="#000000" transform="translate(451.44873046875,374.62939453125)"/>
<path d="M0 0 C3.12979145 0.59322844 4.89168949 1.52011505 7.3125 3.5625 C42.84742292 30.63365037 94.830993 30.61433585 137.58346176 30.32580566 C139.86909558 30.31216217 142.15467065 30.30494197 144.44033813 30.29956055 C166.40343449 30.24564504 188.31740765 29.71949541 210.26467896 28.8598938 C231.60466917 28.0364329 252.91961984 27.771391 274.27334976 27.75323486 C276.69611617 27.75007038 279.1188412 27.74301545 281.54159546 27.73486328 C308.20807091 27.6552545 334.90650382 28.26764502 361.375 31.8125 C362.34370026 31.93896912 362.34370026 31.93896912 363.33197021 32.06799316 C422.30203492 39.79308054 485.12274662 59.06465044 532 97 C532.63808594 97.47953125 533.27617188 97.9590625 533.93359375 98.453125 C539.26992886 102.63038518 542.68264068 107.46828394 544.5859375 114.015625 C545.42591767 121.60441137 540.5627033 128.57208812 537.07617188 134.99658203 C533.09773665 142.40289769 530.09020937 148.38731537 531 157 C532.38885248 159.81780534 532.38885248 159.81780534 534 162 C534 162.99 534 163.98 534 165 C526.67788265 164.357709 520.62159959 163.29367611 515.5625 157.5 C512.7556242 153.35399477 512.12826476 149.89372797 512.41015625 144.9296875 C513.69993795 138.523487 517.14182558 133.04414104 520.51171875 127.5234375 C523.59644753 122.37927661 525.35889513 119.01796416 524 113 C518.22197458 106.57139538 512.21301067 104.91300416 503.875 104.3125 C501.82609014 104.10072343 499.77788952 103.88196915 497.73046875 103.65625 C496.74481934 103.55054688 495.75916992 103.44484375 494.74365234 103.3359375 C474.86506231 100.90196883 456.2506459 91.78300516 443.1796875 76.6640625 C442 75 442 75 442 73 C451.30099365 73.44805451 459.95301478 74.84337234 469 77 C437.58158325 64.04670629 405.60766523 55.15632812 372 50 C371.02144043 49.84692383 370.04288086 49.69384766 369.03466797 49.53613281 C356.67131523 47.65166905 344.26372588 46.64357662 331.78320312 45.94165039 C331.01240952 45.89812506 330.24161592 45.85459973 329.44746494 45.80975544 C310.87979073 44.78691219 292.32376178 44.66709943 273.73238182 44.6282146 C268.98370586 44.61597903 264.23508622 44.59217941 259.4864502 44.56959534 C250.52536788 44.52847766 241.56427981 44.49582432 232.60314989 44.46712118 C216.57544068 44.4156843 200.54777925 44.35295438 184.52014589 44.28178078 C178.9304948 44.25734017 173.34085574 44.23782839 167.75117326 44.2222715 C113.9067909 44.06468626 113.9067909 44.06468626 93.75 41.75 C92.03671509 41.55712402 92.03671509 41.55712402 90.28881836 41.36035156 C63.69483051 38.17209193 28.677261 32.23786672 9 12 C9 11.34 9 10.68 9 10 C8.34 10 7.68 10 7 10 C5.2734375 8.06640625 5.2734375 8.06640625 3.375 5.5625 C2.74335938 4.73878906 2.11171875 3.91507812 1.4609375 3.06640625 C0 1 0 1 0 0 Z " fill="#000000" transform="translate(374,412)"/>
<path d="M0 0 C3.34733551 1.93839167 6.76473682 3.65784746 10.23828125 5.35546875 C14.22741245 7.31465403 18.08715274 9.32525357 21.86328125 11.66796875 C26.50458424 14.52473198 31.3188545 16.95362697 36.20629883 19.35180664 C40.28105388 21.35817705 44.31652971 23.42096882 48.32421875 25.55859375 C86.4907361 45.91209008 127.30775321 60.91663145 170.98828125 60.98046875 C171.77920166 60.98313751 172.57012207 60.98580627 173.38500977 60.98855591 C186.71847607 61.00993012 199.63233238 60.05629908 212.81054688 57.89233398 C215.11068376 57.7213709 216.79843628 58.04661038 218.98828125 58.73046875 C187.72440362 75.95750336 146.05205162 77.21613011 111.34375 73.16796875 C103.86813665 72.0805657 103.86813665 72.0805657 97.06640625 74.70703125 C96.133125 75.58101562 95.19984375 76.455 94.23828125 77.35546875 C79.31265621 90.70898444 62.57123253 95.19488657 42.98828125 94.73046875 C46.52574458 92.77112189 50.1899236 91.71280462 54.05078125 90.54296875 C65.80787589 86.74351535 78.07687498 79.57700788 84.265625 68.4296875 C84.62333984 67.58857422 84.62333984 67.58857422 84.98828125 66.73046875 C83.94285156 66.65828125 82.89742187 66.58609375 81.8203125 66.51171875 C75.49532645 65.71189614 69.63959252 63.39726252 63.67578125 61.23046875 C63.05579254 61.00638336 62.43580383 60.78229797 61.79702759 60.55142212 C43.3606722 53.86466263 26.66438087 45.04781377 9.6953125 35.27783203 C5.79708642 33.04957113 1.86175719 30.89106642 -2.07421875 28.73046875 C-8.67674982 25.09214263 -15.16453389 21.28272061 -21.63671875 17.41796875 C-38.3468365 7.46322447 -55.46104776 -1.8760692 -73.01171875 -10.26953125 C-74.30118408 -10.89142334 -74.30118408 -10.89142334 -75.61669922 -11.52587891 C-107.7234464 -26.92802812 -140.82509741 -36.7811501 -176.01171875 -42.26953125 C-177.16833008 -42.45128906 -178.32494141 -42.63304687 -179.51660156 -42.8203125 C-185.54496593 -43.55022982 -191.60895727 -43.41216841 -197.671875 -43.40234375 C-199.6276371 -43.40377884 -199.6276371 -43.40377884 -201.62290955 -43.40524292 C-204.37044472 -43.40670968 -207.11794717 -43.40459804 -209.86547852 -43.39990234 C-213.37108235 -43.39420002 -216.87660968 -43.39749374 -220.38221073 -43.40347481 C-223.74960481 -43.40797466 -227.11697875 -43.40481648 -230.484375 -43.40234375 C-231.73557632 -43.40436798 -232.98677765 -43.40639221 -234.27589417 -43.40847778 C-239.96816104 -43.39320583 -245.40415567 -43.25452618 -251.01171875 -42.26953125 C-252.82329085 -42.20791315 -254.63676907 -42.18220317 -256.44921875 -42.20703125 C-257.74666016 -42.22056641 -257.74666016 -42.22056641 -259.0703125 -42.234375 C-259.71097656 -42.24597656 -260.35164063 -42.25757813 -261.01171875 -42.26953125 C-258.34316255 -44.93808745 -256.29508126 -44.99596866 -252.59765625 -45.70703125 C-251.95543121 -45.83213577 -251.31320618 -45.9572403 -250.65151978 -46.08613586 C-248.56482784 -46.48941214 -246.47606939 -46.88028179 -244.38671875 -47.26953125 C-243.67854004 -47.40370453 -242.97036133 -47.53787781 -242.24072266 -47.67611694 C-232.20213799 -49.57747214 -222.19808244 -51.35749636 -212.01171875 -52.26953125 C-210.37976563 -52.43388672 -210.37976563 -52.43388672 -208.71484375 -52.6015625 C-135.28907138 -58.83112464 -62.82837297 -37.44155899 0 0 Z " fill="#000000" transform="translate(701.01171875,524.26953125)"/>
<path d="M0 0 C3.44309671 2.15193544 6.49861437 4.38882301 9.5 7.125 C52.89186109 45.60457493 108.20828524 60.10088059 165 58 C172.11949655 57.56327284 179.03279011 56.50415907 186 55 C186.88945313 54.81195801 187.77890625 54.62391602 188.6953125 54.43017578 C206.41176571 50.55315947 223.9172573 44.44000343 240 36 C221.27937377 14.2707017 174.14575856 7.1820157 148 2 C148 1.67 148 1.34 148 1 C198.91150176 -0.26629373 250.36341011 13.48481401 294 40 C292.64310602 43.23754646 291.41764035 44.69591145 288.38671875 46.4453125 C287.64486328 46.87730957 286.90300781 47.30930664 286.13867188 47.75439453 C285.32978516 48.20669434 284.52089844 48.65899414 283.6875 49.125 C282.83865234 49.60437012 281.98980469 50.08374023 281.11523438 50.57763672 C227.23833072 80.58490119 163.88945225 90.7879984 104.04589844 74.18017578 C82.83754457 67.99119888 61.98553994 58.95235932 44 46 C42.94425781 45.24589844 41.88851562 44.49179687 40.80078125 43.71484375 C25.89644867 32.78949589 9.76577493 18.8272904 0 3 C0 2.01 0 1.02 0 0 Z " fill="#000000" transform="translate(345,488)"/>
<path d="M0 0 C14.3125016 11.30796882 25.32732712 28.32571655 27.5703125 46.67578125 C29.06673764 70.77196712 29.06673764 70.77196712 25.5703125 76.67578125 C21.54923578 76.25691909 18.09595757 75.59980793 14.3203125 74.1328125 C13.26070312 73.72446167 13.26070312 73.72446167 12.1796875 73.30786133 C11.38304687 72.99498169 11.38304687 72.99498169 10.5703125 72.67578125 C10.53591064 72.10770752 10.50150879 71.53963379 10.46606445 70.9543457 C9.39194001 54.47944161 7.05930284 41.96340354 -3.4296875 28.67578125 C-3.90148437 28.04027344 -4.37328125 27.40476562 -4.859375 26.75 C-12.32947289 17.23301088 -24.78883884 10.15440116 -36.671875 7.9609375 C-53.54740565 6.21601719 -67.78524374 8.68680556 -82.4296875 17.67578125 C-83.24050781 18.16949219 -84.05132813 18.66320312 -84.88671875 19.171875 C-86.74597305 20.32129141 -88.58986194 21.4955158 -90.4296875 22.67578125 C-91.91253992 21.72316091 -93.39086951 20.7634972 -94.8671875 19.80078125 C-95.69089844 19.26710938 -96.51460937 18.7334375 -97.36328125 18.18359375 C-99.4296875 16.67578125 -99.4296875 16.67578125 -100.4296875 14.67578125 C-94.9671048 5.57147675 -87.69941101 -0.32246164 -78.4296875 -5.32421875 C-77.49576172 -5.87722656 -77.49576172 -5.87722656 -76.54296875 -6.44140625 C-53.13119285 -19.54387519 -21.328754 -15.09894369 0 0 Z " fill="#000000" transform="translate(786.4296875,491.32421875)"/>
<path d="M0 0 C1.17949219 0.61294922 1.17949219 0.61294922 2.3828125 1.23828125 C18.64003543 10.28422818 31.24817483 25.23874182 36.63330078 43.10058594 C37.81041362 47.58294866 38.19118754 51.41149893 38 56 C36.18554265 53.27831398 34.85490122 50.56614601 33.48876953 47.60522461 C26.1133625 31.90198144 15.22277002 21.60425431 -0.9453125 15.04296875 C-16.72806053 9.65422997 -33.73961869 10.25508008 -49 17 C-53.91917921 19.64560899 -58.37769634 22.55187005 -62.546875 26.2734375 C-65 28 -65 28 -67.03515625 27.91015625 C-67.70417969 27.63042969 -68.37320313 27.35070312 -69.0625 27.0625 C-69.82691406 26.75441406 -70.59132812 26.44632812 -71.37890625 26.12890625 C-72.24386719 25.75636719 -73.10882813 25.38382812 -74 25 C-75.06089844 24.59652344 -76.12179688 24.19304687 -77.21484375 23.77734375 C-83.48355192 21.3399269 -83.48355192 21.3399269 -86 20 C-86.33 19.01 -86.66 18.02 -87 17 C-84.27148819 12.77184811 -80.6274047 9.92672892 -76.5625 7.0625 C-75.94850342 6.6286499 -75.33450684 6.1947998 -74.7019043 5.74780273 C-68.80232906 1.69000185 -62.67888316 -1.40551077 -56 -4 C-55.18015625 -4.33902344 -54.3603125 -4.67804688 -53.515625 -5.02734375 C-37.21370717 -10.66033128 -15.01646876 -8.05828818 0 0 Z " fill="#000000" transform="translate(304,483)"/>
<path d="M0 0 C3 1 3 1 3 1 Z " fill="#000000" transform="translate(436,482)"/>
</svg>
