<?xml version="1.0" standalone="no"?>
<!DOCTYPE svg PUBLIC "-//W3C//DTD SVG 20010904//EN"
 "http://www.w3.org/TR/2001/REC-SVG-20010904/DTD/svg10.dtd">
<svg version="1.0" xmlns="http://www.w3.org/2000/svg"
 width="640.000000pt" height="640.000000pt" viewBox="140 140 360 360"
 preserveAspectRatio="xMidYMid meet">

<g transform="translate(0.000000,640.000000) scale(0.100000,-0.100000)"
fill="#ffffff" stroke="none">
<path d="M3028 4909 c-303 -41 -595 -160 -833 -338 -88 -65 -249 -225 -314
-311 -211 -275 -322 -571 -352 -927 -26 -313 34 -624 176 -908 89 -176 176
-297 325 -445 242 -242 519 -391 866 -466 121 -26 145 -28 374 -29 262 0 318
7 515 61 196 55 424 171 585 298 83 66 227 207 256 251 l18 28 -247 244 c-136
133 -251 243 -255 243 -4 0 -16 -14 -26 -30 -52 -89 -239 -246 -371 -312 -133
-67 -290 -102 -460 -102 -216 -1 -397 52 -565 162 -282 186 -443 478 -457 827
-21 507 282 925 762 1051 87 23 121 27 255 27 136 1 167 -2 256 -26 221 -57
395 -168 545 -345 l45 -53 246 258 246 258 -32 40 c-54 66 -214 202 -319 272
-182 120 -397 208 -623 254 -89 18 -150 22 -329 25 -121 1 -250 -2 -287 -7z"/>
<path d="M3175 3640 c-152 -13 -254 -45 -475 -151 -116 -54 -184 -81 -229 -88
-36 -6 -68 -16 -72 -23 -13 -21 -22 -177 -15 -262 4 -45 14 -107 23 -138 l15
-57 57 -11 c31 -6 66 -13 79 -16 20 -4 22 -1 22 38 1 55 28 113 75 160 143
141 381 47 402 -158 l6 -54 542 0 542 0 6 54 c7 66 35 123 80 163 150 131 381
39 395 -158 l4 -59 103 0 c123 0 134 7 142 98 6 68 -12 136 -51 187 -52 67
-247 133 -501 169 -66 9 -147 21 -180 25 -50 7 -80 21 -175 81 -163 103 -275
157 -371 179 -97 22 -294 32 -424 21z m410 -115 c33 -9 100 -37 150 -64 90
-48 229 -140 222 -147 -2 -2 -109 0 -238 6 -129 5 -257 10 -286 10 l-51 0 -23
98 c-12 53 -24 103 -27 111 -5 12 11 13 94 8 54 -4 126 -14 159 -22z m-335
-42 c7 -32 16 -76 20 -98 5 -22 7 -41 4 -44 -2 -2 -97 0 -210 5 -186 8 -207
11 -220 28 -23 31 -17 45 32 76 76 48 213 86 316 89 l47 1 11 -57z"/>
<path d="M2743 3065 c-99 -43 -115 -205 -27 -274 57 -45 146 -46 202 -4 61 46
80 144 41 213 -40 70 -137 100 -216 65z"/>
<path d="M4310 3058 c-48 -33 -72 -70 -77 -121 -18 -158 188 -245 286 -121 47
60 47 148 1 206 -46 59 -150 76 -210 36z"/>
</g>
</svg>
